# xmcd
#
# Track frame offsets:
#	150
#	13160
#	31252
#	48982
#	69347
#	88232
#	105597
#	120895
#	134760
#	152165
#
# Disc length: 2243 seconds
#
# Revision: 1
# Processed by: cddbd v1.5PL3 Copyright (c) Steve Scherf et al.
# Submitted via: EasyCDDAExtractor 5.0.7
#
DISCID=7e08c10a
DTITLE=Claude Dubois - Dur et Tendre
DYEAR=2003
DGENRE=Québec
TTITLE0=Le charmeur
TTITLE1=Télékinésie
TTITLE2=Chanter
TTITLE3=Brise
TTITLE4=Les criardes
TTITLE5=Hier
TTITLE6=Même moi
TTITLE7=Pauvre p'tite affaire
TTITLE8=Zappe ta face
TTITLE9=La poursuite
EXTD=Batterie - Pierre Hébert, Richard Pierrotte\nBasse - Sylvain Bolduc\nPerc
EXTD=ussion - Richard Pierreotte\nGuitare - John Holbrook\nPiano, claviers, ac
EXTD=cordéon - Alain Sauvageau\nTrompette - Jaen-François Fafoui Gagnon\nTromb
EXTD=onne - Muhammad Mo Abdoul Al-Khabyyr\nViolon - Josée Aidans\nVoix - Marti
EXTD=ne St-Clair\nStudio Coda and de Monfort
EXTT0=
EXTT1=
EXTT2=
EXTT3=
EXTT4=
EXTT5=
EXTT6=
EXTT7=
EXTT8=
EXTT9=
PLAYORDER=
